# xmcd
#
# Track frame offsets:
#	150
#	9853
#	28055
#	43266
#	62946
#	85999
#	106098
#	121781
#	139133
#	151054
#	169848
#	186908
#	202197
#	220293
#	238962
#	257574
#
# Disc length: 3649 seconds
#
# Revision: 1
# Processed by: cddbd v1.5.2PL0 Copyright (c) Steve Scherf et al.
# Submitted via: audiograbber 1.83.01
#
DISCID=e10e3f10
DTITLE=Sheryl Crow - Detour
DYEAR=1900
DGENRE=
TTITLE0=God Bless This Mess
TTITLE1=Shine Over Babylon
TTITLE2=Love Is Free
TTITLE3=Peace Be Upon Us
TTITLE4=Gasoline
TTITLE5=Out Of Our Heads
TTITLE6=Detours
TTITLE7=Now That You're Gone
TTITLE8=Drunk With The Thought Of You
TTITLE9=Diamond Ring
TTITLE10=Motivation
TTITLE11=Make It Go Away (Radiation Son
TTITLE12=Love Is All There Is
TTITLE13=Lullaby For Wyatt
TTITLE14=Rise Up
TTITLE15=Beautiful Dream
EXTD=
EXTT0=
EXTT1=
EXTT2=
EXTT3=
EXTT4=
EXTT5=
EXTT6=
EXTT7=
EXTT8=
EXTT9=
EXTT10=
EXTT11=
EXTT12=
EXTT13=
EXTT14=
EXTT15=
PLAYORDER=
